<?xml version="1.0" standalone="no"?>
<!DOCTYPE svg PUBLIC "-//W3C//DTD SVG 20010904//EN"
 "http://www.w3.org/TR/2001/REC-SVG-20010904/DTD/svg10.dtd">
<svg version="1.0" xmlns="http://www.w3.org/2000/svg"
 width="920.000000pt" height="510.000000pt" viewBox="0 0 920.000000 510.000000"
 preserveAspectRatio="xMidYMid meet">

<g transform="translate(0.000000,510.000000) scale(0.100000,-0.100000)"
fill="#000000" stroke="none">
<path d="M3530 4605 l0 -85 -85 0 -85 0 0 -330 0 -330 85 0 85 0 0 -165 0
-165 80 0 80 0 0 -330 0 -330 -330 0 -330 0 0 85 0 85 -330 0 -330 0 0 -85 0
-85 -165 0 -165 0 0 -410 0 -410 165 0 165 0 0 -85 0 -85 330 0 330 0 0 85 0
85 580 0 580 0 0 -85 0 -85 80 0 80 0 0 -245 0 -245 -80 0 -80 0 0 -85 0 -85
-85 0 -85 0 0 -165 0 -165 -80 0 -80 0 0 -80 0 -80 -85 0 -85 0 0 -165 0 -165
745 0 745 0 0 165 0 165 -85 0 -85 0 0 165 0 165 165 0 165 0 0 -85 0 -85 85
0 85 0 0 -80 0 -80 80 0 80 0 0 -165 0 -165 745 0 745 0 0 165 0 165 -85 0
-85 0 0 80 0 80 -165 0 -165 0 0 85 0 85 -165 0 -165 0 0 80 0 80 -80 0 -80 0
0 85 0 85 -85 0 -85 0 0 80 0 80 -80 0 -80 0 0 85 0 85 80 0 80 0 0 80 0 80
85 0 85 0 0 85 0 85 80 0 80 0 0 80 0 80 85 0 85 0 0 85 0 85 80 0 80 0 0 245
0 245 -80 0 -80 0 0 165 0 165 -85 0 -85 0 0 165 0 165 -80 0 -80 0 0 165 0
165 -85 0 -85 0 0 165 0 165 -80 0 -80 0 0 85 0 85 -85 0 -85 0 0 80 0 80 -80
0 -80 0 0 85 0 85 -250 0 -250 0 0 -85 0 -85 -80 0 -80 0 0 -80 0 -80 -415 0
-415 0 0 80 0 80 -80 0 -80 0 0 85 0 85 -165 0 -165 0 0 -85z m1980 -165 l0
-80 80 0 80 0 0 -85 0 -85 85 0 85 0 0 -165 0 -165 80 0 80 0 0 -165 0 -165
85 0 85 0 0 -165 0 -165 -85 0 -85 0 0 165 0 165 -80 0 -80 0 0 165 0 165 -85
0 -85 0 0 -165 0 -165 -80 0 -80 0 0 -245 0 -245 -85 0 -85 0 0 245 0 245 85
0 85 0 0 85 0 85 -85 0 -85 0 0 80 0 80 -165 0 -165 0 0 85 0 85 -80 0 -80 0
0 -85 0 -85 -85 0 -85 0 0 -165 0 -165 -80 0 -80 0 0 -80 0 -80 -85 0 -85 0 0
-85 0 -85 -80 0 -80 0 0 85 0 85 80 0 80 0 0 80 0 80 85 0 85 0 0 165 0 165
80 0 80 0 0 165 0 165 85 0 85 0 0 85 0 85 80 0 80 0 0 80 0 80 250 0 250 0 0
-80z m-330 -1320 l0 -250 -165 0 -165 0 0 -80 0 -80 80 0 80 0 0 -85 0 -85
-80 0 -80 0 0 -80 0 -80 -330 0 -330 0 0 80 0 80 -85 0 -85 0 0 -80 0 -80
-330 0 -330 0 0 80 0 80 330 0 330 0 0 85 0 85 -80 0 -80 0 0 245 0 245 80 0
80 0 0 -165 0 -165 85 0 85 0 0 85 0 85 80 0 80 0 0 -85 0 -85 165 0 165 0 0
165 0 165 85 0 85 0 0 85 0 85 165 0 165 0 0 -250z m660 -80 l0 -330 80 0 80
0 0 -85 0 -85 85 0 85 0 0 -245 0 -245 -85 0 -85 0 0 -85 0 -85 -165 0 -165 0
0 85 0 85 -80 0 -80 0 0 165 0 165 80 0 80 0 0 80 0 80 -80 0 -80 0 0 85 0 85
80 0 80 0 0 330 0 330 85 0 85 0 0 -330z m-3300 -580 l0 -410 -85 0 -85 0 0
80 0 80 -80 0 -80 0 0 250 0 250 80 0 80 0 0 80 0 80 85 0 85 0 0 -410z m2970
-660 l0 -80 -85 0 -85 0 0 -85 0 -85 -410 0 -410 0 0 85 0 85 410 0 410 0 0
80 0 80 85 0 85 0 0 -80z m-660 -575 l0 -165 -165 0 -165 0 0 165 0 165 165 0
165 0 0 -165z m990 -85 l0 -250 -85 0 -85 0 0 85 0 85 -80 0 -80 0 0 165 0
165 165 0 165 0 0 -250z m-1160 -330 l0 -80 165 0 165 0 0 -85 0 -85 -575 0
-575 0 0 85 0 85 80 0 80 0 0 80 0 80 330 0 330 0 0 -80z m1980 0 l0 -80 165
0 165 0 0 -85 0 -85 -575 0 -575 0 0 85 0 85 165 0 165 0 0 80 0 80 245 0 245
0 0 -80z"/>
<path d="M5010 4110 l0 -80 250 0 250 0 0 -85 0 -85 80 0 80 0 0 85 0 85 -80
0 -80 0 0 80 0 80 -250 0 -250 0 0 -80z"/>
<path d="M4190 2625 l0 -85 330 0 330 0 0 85 0 85 -330 0 -330 0 0 -85z"/>
<path d="M5670 2625 l0 -85 85 0 85 0 0 -165 0 -165 80 0 80 0 0 165 0 165
-80 0 -80 0 0 85 0 85 -85 0 -85 0 0 -85z"/>
</g>
</svg>
